<svg xmlns="http://www.w3.org/2000/svg" viewBox="0 0 335.99 235.19"><defs><style>.cls-1{isolation:isolate;}.cls-2{fill:#ffc941;}.cls-10,.cls-13,.cls-15,.cls-3{fill:#ddd;}.cls-10,.cls-3{mix-blend-mode:multiply;}.cls-16,.cls-4{fill:#f05751;}.cls-5{fill:#f6f6f6;}.cls-6{fill:#9fa3a9;}.cls-7{fill:#5fc39f;}.cls-14,.cls-19,.cls-8{fill:#fff;}.cls-12,.cls-9{fill:#8fd5fb;}.cls-10,.cls-11,.cls-12,.cls-13,.cls-14,.cls-16{fill-rule:evenodd;}.cls-11{fill:#6fb4e4;}.cls-17{fill:#ededed;}.cls-18{fill:#4a2e22;}.cls-19{opacity:0.2;}.cls-20{fill:#596374;}</style></defs><title>D_50</title><g class="cls-1"><g id="Layer"><rect class="cls-2" width="335.99" height="235.19"/><path class="cls-3" d="M245.63,32.33c0.12-1.77-.06-3-2.24-3H232.47L228,25.61c0-2.06.31-7.71,0.31-7.71V16.73c0-2-1-3.64-3.06-3.64h-3.58c-2,0-2.77,1.63-2.77,3.64v1.18s0,5.65,0,7.71l-4.52,3.75H203.63c-2.18,0-2.53,1.2-2.53,3h-50.3V218.26H296.33V32.33h-50.7ZM223.42,16.11a2.14,2.14,0,1,1-2.14,2.14A2.14,2.14,0,0,1,223.42,16.11Z"/><rect class="cls-4" x="146.31" y="32.33" width="145.53" height="185.93"/><rect class="cls-5" x="156.01" y="41.49" width="126.12" height="168.71"/><path class="cls-6" d="M241,35.2c0-3.22,1.16-5.84-2.06-5.84H228l-4.52-3.75c0-2.06.31-7.71,0.31-7.71V16.73c0-2-1-3.64-3.06-3.64h-3.58c-2,0-2.77,1.63-2.77,3.64v1.18s0,5.65,0,7.71l-4.52,3.75H199.14c-3.22,0-2.44,2.61-2.44,5.84v4.41c0,3.22-.65,5.84,2.57,5.84h39.37c3.22,0,2.32-2.61,2.32-5.84V35.2Zm-22-19.09a2.14,2.14,0,1,1-2.14,2.14A2.14,2.14,0,0,1,218.93,16.11Z"/><path class="cls-3" d="M98.54,12.45H91.17V10.91H84.5s0,0.59,0,1.56l-66.73.07a2.6,2.6,0,0,0-2.47,2.71L15.22,137.91a3.58,3.58,0,0,0,3.39,3.74l65.86,0v0.95a0.5,0.5,0,0,0,.46.41h0.69v0.14h0.61v-0.14H87.5v0.14h0.61v-0.14h1.33v0.14H90v-0.14h0.84a0.35,0.35,0,0,0,.28-0.42V141.7H98c4.85,0,8.79-4.33,8.79-9.68l0.07-110.24C106.86,16.71,103.14,12.45,98.54,12.45Z"/><path class="cls-7" d="M95.21,141.7l-79.38-.06a3.58,3.58,0,0,1-3.39-3.74L12.52,15.25A2.6,2.6,0,0,1,15,12.54l80.77-.09c4.6,0,8.32,4.26,8.32,9.33L104,132c0,5.35-3.94,9.68-8.79,9.68"/><rect class="cls-8" x="25.02" y="12.58" width="3.52" height="129.04"/><path class="cls-9" d="M82.15,143.06h6a0.35,0.35,0,0,0,.28-0.42s0-131.4,0-131.73H81.72c0,0.76,0,131.73,0,131.73a0.5,0.5,0,0,0,.46.41"/><rect class="cls-3" x="88.4" y="12.46" width="2.65" height="129.12"/><rect class="cls-8" x="82.84" y="10.9" width="0.61" height="132.3"/><rect class="cls-8" x="84.72" y="10.9" width="0.61" height="132.3"/><rect class="cls-8" x="86.66" y="10.9" width="0.61" height="132.3"/><path class="cls-10" d="M305.8,129.62H274.28v53.2h45.54V143.63Z"/><path class="cls-11" d="M271,129.62h31.52l14,14v39.19H271v-53.2Z"/><path class="cls-12" d="M316.53,143.63h-14v-14Z"/><path class="cls-10" d="M180.74,58.48a11.63,11.63,0,0,0-11.59,11.6,11.63,11.63,0,0,0-11.6-11.6H75.32V183.37h31.57v10.29l5.38-3.15,5.38,3.15V183.37H158c5.28,0,9.76-1.48,11.18-3.49,1.42,2,5.9,3.49,11.17,3.49H263V58.48H180.74Z"/><path class="cls-13" d="M72.32,174.15H155c6.22,0,11.34,2.05,11.64,4.61-0.3,2.56-5.42,4.61-11.64,4.61H72.32v-9.22Z"/><path class="cls-13" d="M260,174.15H177.32c-6.22,0-11.35,2.05-11.65,4.61,0.3,2.56,5.42,4.61,11.65,4.61H260v-9.22Z"/><path class="cls-14" d="M166.15,177.64V70.08a11.63,11.63,0,0,0-11.6-11.6H72.32V174.15H155C160.25,174.15,164.73,175.63,166.15,177.64Z"/><path class="cls-12" d="M177.75,58.48a11.63,11.63,0,0,0-11.6,11.6V177.64c1.42-2,5.9-3.49,11.18-3.49H260V58.48H177.75Z"/><rect class="cls-15" x="76.68" y="68.6" width="79.7" height="0.87"/><path class="cls-13" d="M76.68,71.65h79.7v0.87H76.68V71.65Z"/><path class="cls-13" d="M76.68,74.69h79.7v0.87H76.68V74.69Z"/><path class="cls-13" d="M76.68,77.74h79.7v0.87H76.68V77.74Z"/><path class="cls-13" d="M76.68,80.79h79.7v0.87H76.68V80.79Z"/><path class="cls-13" d="M76.68,83.84h79.7v0.87H76.68V83.84Z"/><path class="cls-13" d="M76.68,86.89h79.7v0.87H76.68V86.89Z"/><path class="cls-13" d="M76.68,89.94h79.7v0.87H76.68V89.94Z"/><path class="cls-13" d="M76.68,93h79.7v0.87H76.68V93Z"/><path class="cls-13" d="M76.68,96h79.7v0.87H76.68V96Z"/><path class="cls-13" d="M76.68,99.08h79.7V100H76.68V99.08Z"/><path class="cls-13" d="M76.68,102.13h79.7V103H76.68v-0.87Z"/><path class="cls-13" d="M76.68,105.18h79.7v0.87H76.68v-0.87Z"/><path class="cls-13" d="M76.68,108.23h79.7v0.87H76.68v-0.87Z"/><path class="cls-13" d="M76.68,111.28h79.7v0.87H76.68v-0.87Z"/><path class="cls-13" d="M76.68,114.32h79.7v0.87H76.68v-0.87Z"/><path class="cls-13" d="M76.68,117.37h79.7v0.87H76.68v-0.87Z"/><path class="cls-13" d="M76.68,120.42h79.7v0.87H76.68v-0.87Z"/><path class="cls-13" d="M76.68,123.47h79.7v0.87H76.68v-0.87Z"/><path class="cls-13" d="M76.68,126.52h79.7v0.87H76.68v-0.87Z"/><path class="cls-13" d="M76.68,129.57h79.7v0.87H76.68v-0.87Z"/><path class="cls-13" d="M76.68,132.62h79.7v0.87H76.68v-0.87Z"/><path class="cls-13" d="M76.68,135.66h79.7v0.87H76.68v-0.87Z"/><path class="cls-13" d="M76.68,138.71h79.7v0.87H76.68v-0.87Z"/><path class="cls-13" d="M76.68,141.76h79.7v0.87H76.68v-0.87Z"/><path class="cls-13" d="M76.68,144.81h79.7v0.87H76.68v-0.87Z"/><path class="cls-13" d="M76.68,147.86h79.7v0.87H76.68v-0.87Z"/><path class="cls-13" d="M76.68,150.91h79.7v0.87H76.68v-0.87Z"/><path class="cls-13" d="M76.68,154h79.7v0.87H76.68V154Z"/><path class="cls-13" d="M76.68,157h79.7v0.87H76.68V157Z"/><path class="cls-13" d="M76.68,160.05h79.7v0.87H76.68v-0.87Z"/><rect class="cls-15" x="76.68" y="163.1" width="79.7" height="0.87"/><rect class="cls-8" x="76.68" y="68.6" width="38.54" height="34.41"/><rect class="cls-4" x="76.68" y="68.6" width="38.29" height="33.53"/><rect class="cls-8" x="114.98" y="68.6" width="3.11" height="96.8"/><rect class="cls-8" x="175.36" y="68.6" width="38.29" height="0.87"/><rect class="cls-8" x="216.77" y="68.6" width="38.29" height="0.87"/><rect class="cls-8" x="175.36" y="71.3" width="38.29" height="0.87"/><rect class="cls-8" x="216.77" y="71.3" width="38.29" height="0.87"/><rect class="cls-8" x="175.36" y="74" width="38.29" height="0.87"/><rect class="cls-8" x="216.77" y="74" width="38.29" height="0.87"/><rect class="cls-8" x="175.36" y="76.69" width="38.29" height="0.87"/><rect class="cls-8" x="216.77" y="76.69" width="38.29" height="0.87"/><rect class="cls-8" x="175.36" y="79.39" width="38.29" height="0.87"/><rect class="cls-8" x="216.77" y="79.39" width="38.29" height="0.87"/><rect class="cls-8" x="175.36" y="82.09" width="38.29" height="0.87"/><rect class="cls-8" x="216.77" y="82.09" width="38.29" height="0.87"/><rect class="cls-8" x="175.36" y="84.79" width="38.29" height="0.87"/><rect class="cls-8" x="216.77" y="84.79" width="38.29" height="0.87"/><rect class="cls-8" x="175.36" y="87.49" width="38.29" height="0.87"/><rect class="cls-8" x="216.77" y="87.49" width="38.29" height="0.87"/><rect class="cls-8" x="175.36" y="90.19" width="38.29" height="0.87"/><rect class="cls-8" x="216.77" y="90.19" width="38.29" height="0.87"/><rect class="cls-8" x="175.36" y="92.89" width="38.29" height="0.87"/><rect class="cls-8" x="216.77" y="92.89" width="38.29" height="0.87"/><rect class="cls-8" x="175.36" y="95.59" width="38.29" height="0.87"/><rect class="cls-8" x="216.77" y="95.59" width="38.29" height="0.87"/><rect class="cls-8" x="175.36" y="98.29" width="38.29" height="0.87"/><rect class="cls-8" x="216.77" y="98.29" width="38.29" height="0.87"/><rect class="cls-8" x="175.36" y="100.99" width="38.29" height="0.87"/><rect class="cls-8" x="216.77" y="100.99" width="38.29" height="0.87"/><rect class="cls-8" x="175.36" y="103.69" width="38.29" height="0.87"/><rect class="cls-8" x="216.77" y="103.69" width="38.29" height="0.87"/><rect class="cls-8" x="175.36" y="106.39" width="38.29" height="0.87"/><rect class="cls-8" x="216.77" y="106.39" width="38.29" height="0.87"/><rect class="cls-8" x="175.36" y="109.09" width="38.29" height="0.87"/><rect class="cls-8" x="216.77" y="109.09" width="38.29" height="0.87"/><rect class="cls-8" x="175.36" y="111.79" width="38.29" height="0.87"/><rect class="cls-8" x="216.77" y="111.79" width="38.29" height="0.87"/><rect class="cls-8" x="175.36" y="114.49" width="38.29" height="0.87"/><rect class="cls-8" x="216.77" y="114.49" width="38.29" height="0.87"/><rect class="cls-8" x="175.36" y="117.19" width="38.29" height="0.87"/><rect class="cls-8" x="216.77" y="117.19" width="38.29" height="0.87"/><rect class="cls-8" x="175.36" y="119.88" width="38.29" height="0.87"/><rect class="cls-8" x="216.77" y="119.88" width="38.29" height="0.87"/><rect class="cls-8" x="175.36" y="122.59" width="38.29" height="0.87"/><rect class="cls-8" x="216.77" y="122.59" width="38.29" height="0.87"/><rect class="cls-8" x="175.36" y="125.28" width="38.29" height="0.87"/><rect class="cls-8" x="216.77" y="125.28" width="38.29" height="0.87"/><rect class="cls-8" x="175.36" y="127.98" width="38.29" height="0.87"/><rect class="cls-8" x="216.77" y="127.98" width="38.29" height="0.87"/><rect class="cls-8" x="175.36" y="130.68" width="38.29" height="0.87"/><rect class="cls-8" x="216.77" y="130.68" width="38.29" height="0.87"/><rect class="cls-8" x="175.36" y="133.38" width="38.29" height="0.87"/><rect class="cls-8" x="216.77" y="133.38" width="38.29" height="0.87"/><rect class="cls-8" x="175.36" y="136.08" width="38.29" height="0.87"/><rect class="cls-8" x="216.77" y="136.08" width="38.29" height="0.87"/><rect class="cls-8" x="175.36" y="138.78" width="38.29" height="0.87"/><rect class="cls-8" x="216.77" y="138.78" width="38.29" height="0.87"/><rect class="cls-8" x="175.36" y="141.48" width="38.29" height="0.87"/><rect class="cls-8" x="216.77" y="141.48" width="38.29" height="0.87"/><rect class="cls-8" x="175.36" y="144.18" width="38.29" height="0.87"/><rect class="cls-8" x="216.77" y="144.18" width="38.29" height="0.87"/><rect class="cls-8" x="175.36" y="146.88" width="38.29" height="0.87"/><rect class="cls-8" x="216.77" y="146.88" width="38.29" height="0.87"/><rect class="cls-8" x="175.36" y="149.58" width="38.29" height="0.87"/><rect class="cls-8" x="216.77" y="149.58" width="38.29" height="0.87"/><rect class="cls-8" x="175.36" y="152.28" width="38.29" height="0.87"/><rect class="cls-8" x="216.77" y="152.28" width="38.29" height="0.87"/><rect class="cls-8" x="175.36" y="154.98" width="38.29" height="0.87"/><rect class="cls-8" x="216.77" y="154.98" width="38.29" height="0.87"/><rect class="cls-8" x="175.36" y="157.68" width="38.29" height="0.87"/><rect class="cls-8" x="216.77" y="157.68" width="38.29" height="0.87"/><rect class="cls-8" x="175.36" y="160.38" width="38.29" height="0.87"/><rect class="cls-8" x="216.77" y="160.38" width="38.29" height="0.87"/><rect class="cls-8" x="175.36" y="163.07" width="38.29" height="0.87"/><rect class="cls-8" x="216.77" y="163.07" width="38.29" height="0.87"/><rect class="cls-9" x="76.68" y="138.79" width="38.29" height="3.92"/><rect class="cls-7" x="118.09" y="86.89" width="38.29" height="3.92"/><polygon class="cls-16" points="103.89 178.34 114.65 178.34 114.65 193.66 109.27 190.5 103.89 193.66 103.89 178.34"/><path class="cls-3" d="M91.41,179.69a36.89,36.89,0,1,0-30.84,42.09A36.89,36.89,0,0,0,91.41,179.69Z"/><path class="cls-8" d="M87.51,179.69a36.89,36.89,0,1,1-42.08-30.84A36.9,36.9,0,0,1,87.51,179.69Z"/><circle class="cls-17" cx="51.13" cy="185.39" r="35.16" transform="translate(-27.63 9.95) rotate(-8.76)"/><path class="cls-3" d="M77.33,181A23.36,23.36,0,0,0,31,182.27l-8.15.06s-2.22-.12-2.26,1.85,2.16,2,2.16,2h8.19c0,0.63.11,1.27,0.21,1.91A23.37,23.37,0,1,0,77.33,181Z"/><path class="cls-8" d="M74,181a23.36,23.36,0,0,0-46.34,1.3l-8.15.06s-2.22-.12-2.26,1.85,2.16,2,2.16,2h8.19c0,0.63.11,1.27,0.21,1.91A23.37,23.37,0,1,0,74,181Z"/><circle class="cls-18" cx="50.93" cy="184.53" r="20.36" transform="translate(-27.5 9.91) rotate(-8.76)"/><path class="cls-3" d="M32.53,189.35A20.35,20.35,0,0,1,66.12,171,20.35,20.35,0,1,0,37.47,199.8,20.25,20.25,0,0,1,32.53,189.35Z"/><path class="cls-19" d="M37.13,196.46c-6.57-7.82,1.77,4,18.36-6.86,15.67-12.29,3.38-24.72,9.94-16.9A18.48,18.48,0,0,1,37.13,196.46Z"/><path class="cls-3" d="M316.38,74.91l-0.51-.48,0,0h0a4.23,4.23,0,0,0-2.25-3.73V66.52a53.58,53.58,0,0,0-107.16,0v3.82a4.24,4.24,0,0,0-3.24,4.12h0l0,0-0.51.48c-8.9,5.68-8.64,24.6.4,33.65l0.08-2.28v2.15s0,0.08,0,.12h0a4.23,4.23,0,0,0,8.31,1,4.24,4.24,0,0,0,8.32-1.14v-34a4.24,4.24,0,0,0-8.32-1.14,4.34,4.34,0,0,0-.66-1.36V66.52a49.16,49.16,0,1,1,98.32,0V71a4.25,4.25,0,0,0-1.66,2.33,4.24,4.24,0,0,0-8.31,1.16v34a4.24,4.24,0,0,0,8.32,1.14,4.23,4.23,0,0,0,8.31-1h0s0-.08,0-0.12v-2.15l0.08,2.28C325,99.51,325.29,80.59,316.38,74.91Z"/><path class="cls-6" d="M216.17,108.43a4.25,4.25,0,0,1-4.25,4.25h0a4.25,4.25,0,0,1-4.25-4.25v-34a4.25,4.25,0,0,1,4.25-4.25h0a4.25,4.25,0,0,1,4.25,4.25v34Z"/><path class="cls-7" d="M199,74.91l0.51-.48-0.11,34.13h0C190.4,99.51,190.14,80.59,199,74.91Z"/><path class="cls-6" d="M295.53,108.43a4.25,4.25,0,0,0,4.25,4.25h0a4.25,4.25,0,0,0,4.25-4.25v-34a4.25,4.25,0,0,0-4.25-4.25h0a4.25,4.25,0,0,0-4.25,4.25v34Z"/><path class="cls-7" d="M312.66,74.91l-0.51-.48,0.11,34.13h0C321.3,99.51,321.56,80.59,312.66,74.91Z"/><path class="cls-20" d="M312.17,106.28l0.14-26.7-0.15-.33,0-4.82,0,0h0a4.23,4.23,0,0,0-2.25-3.73V66.52a53.58,53.58,0,1,0-107.16,0v3.82a4.24,4.24,0,0,0-3.24,4.12h0l0,0,0,4.82-0.15.33,0.14,26.7v2.15s0,0.08,0,.12h0a4.24,4.24,0,0,0,8.48-.13v-34a4.21,4.21,0,0,0-.83-2.5V66.52a49.16,49.16,0,1,1,98.32,0V71a4.24,4.24,0,0,0-1.83,3.48v34a4.24,4.24,0,0,0,8.48.13h0s0-.08,0-0.12v-2.15Z"/><path class="cls-8" d="M117.74,14.91a4.12,4.12,0,0,1,5.82.3l11,12.15a5.36,5.36,0,1,1-8,7.18L116.8,23.71l0.93-.84,9.77,10.83a4.1,4.1,0,0,0,6.09-5.49L122.63,16a2.86,2.86,0,1,0-4.25,3.84l9.26,10.27A1.61,1.61,0,1,0,130,28l-8.25-9.15L122.7,18,131,27.16A2.86,2.86,0,1,1,126.71,31l-9.26-10.27A4.12,4.12,0,0,1,117.74,14.91Z"/><path class="cls-7" d="M88.56,211.07A4.13,4.13,0,0,1,92.69,207L109,207a5.36,5.36,0,1,1,0,10.71l-14.58,0v-1.26l14.58,0a4.1,4.1,0,0,0,0-8.2l-16.36,0a2.86,2.86,0,1,0,0,5.73l13.83,0a1.61,1.61,0,0,0,0-3.21l-12.32,0v-1.26l12.32,0a2.86,2.86,0,0,1,0,5.73l-13.83,0A4.12,4.12,0,0,1,88.56,211.07Z"/><path class="cls-6" d="M312.6,192.91a4.13,4.13,0,0,1,4.11,4.13l0,16.36a5.36,5.36,0,1,1-10.71,0l0-14.58h1.26l0,14.58a4.1,4.1,0,1,0,8.2,0l0-16.36a2.86,2.86,0,1,0-5.73,0l0,13.83a1.61,1.61,0,1,0,3.21,0l0-12.32h1.26l0,12.32a2.86,2.86,0,0,1-5.73,0l0-13.83A4.13,4.13,0,0,1,312.6,192.91Z"/><path class="cls-20" d="M132.29,192.42a4.13,4.13,0,0,1,4.1,4.14l-0.09,16.36a5.36,5.36,0,0,1-10.71-.06l0.08-14.58h1.26l-0.08,14.58a4.1,4.1,0,0,0,8.2,0l0.09-16.36a2.86,2.86,0,0,0-5.73,0l-0.07,13.83a1.61,1.61,0,0,0,3.21,0L132.6,198h1.26l-0.07,12.32a2.86,2.86,0,0,1-5.73,0l0.07-13.83A4.12,4.12,0,0,1,132.29,192.42Z"/></g></g></svg>